<?xml version="1.0" encoding="utf-8"?>
<!-- Generator: Adobe Illustrator 24.0.2, SVG Export Plug-In . SVG Version: 6.00 Build 0)  -->
<svg version="1.1" id="Layer_4" xmlns="http://www.w3.org/2000/svg" xmlns:xlink="http://www.w3.org/1999/xlink" x="0px" y="0px"
	 viewBox="0 0 339.9 254" style="enable-background:new 0 0 339.9 254;" xml:space="preserve">
<style type="text/css">
	.st0{fill:#FFFFFF;}
</style>
<g>
	<g>
		<path class="st0" d="M56.9,28.4v2.1c-0.9,0.5-1.8,0.9-2.6,1.1s-1.7,0.3-2.6,0.3c-3,0-5.5-1-7.4-3s-3-4.5-3-7.5s1-5.5,3-7.5
			s4.5-3,7.4-3c0.9,0,1.8,0.1,2.6,0.3s1.7,0.6,2.6,1.1v2.1c-0.9-0.7-1.7-1.2-2.6-1.5c-0.8-0.3-1.8-0.4-2.9-0.4c-2.1,0-4,0.7-5.5,2.2
			s-2.5,3.3-2.8,5.7h9.7v1.8h-9.7c0.2,2.4,1.1,4.3,2.7,5.8s3.4,2.2,5.6,2.2c1.1,0,2-0.1,2.9-0.4C55.2,29.6,56,29.1,56.9,28.4z"/>
	</g>
	<g>
		<path class="st0" d="M170.7,201.9c0-2.7,0.4-5.4,1.3-7.8c0.8-2.5,2.1-4.7,3.7-6.8c2.2-2.7,4.7-4.7,7.7-6.1s6.2-2.1,9.7-2.1
			c2.7,0,5.2,0.4,7.7,1.3s4.7,2.2,6.7,3.8c2.7,2.2,4.7,4.8,6.1,7.8s2.1,6.4,2.1,9.9c0,2.8-0.4,5.4-1.3,7.9s-2.1,4.7-3.7,6.8
			c-2.2,2.7-4.8,4.7-7.7,6.2c-3,1.4-6.2,2.1-9.6,2.1c-3.1,0-6-0.6-8.8-1.7s-5.2-2.8-7.3-5c-2.2-2.2-3.8-4.6-4.9-7.3
			C171.2,208,170.7,205,170.7,201.9z M174.8,201.9c0,5.4,1.8,10,5.4,13.7c3.6,3.7,8,5.5,13.2,5.5s9.5-1.8,13.1-5.5
			c3.5-3.7,5.3-8.3,5.3-13.7s-1.8-10-5.4-13.7c-3.6-3.7-8-5.6-13.2-5.6s-9.6,1.8-13.1,5.5C176.6,191.8,174.8,196.4,174.8,201.9z"/>
		<path class="st0" d="M220.7,179.7h0.6c7.4,0,13.3,2,17.7,6.1s6.6,9.4,6.6,16.1c0,6.6-2.2,12-6.6,16.1s-10.2,6.1-17.4,6.1h-0.9
			L220.7,179.7L220.7,179.7z M224.6,183.8V220c5.1-0.2,9.2-2,12.3-5.3c3.1-3.3,4.6-7.6,4.6-12.8c0-5.3-1.6-9.6-4.7-12.9
			C233.7,185.6,229.6,183.8,224.6,183.8z"/>
		<path class="st0" d="M282.9,216.9v4.6c-2,1.1-3.9,1.9-5.7,2.4c-1.8,0.5-3.7,0.8-5.7,0.8c-6.5,0-11.9-2.2-16.2-6.6
			s-6.5-9.8-6.5-16.3s2.2-12,6.5-16.3c4.3-4.3,9.7-6.6,16.2-6.6c2,0,3.9,0.3,5.8,0.8c1.8,0.5,3.7,1.3,5.6,2.4v4.7
			c-1.9-1.5-3.8-2.5-5.6-3.2c-1.8-0.6-3.9-1-6.3-1c-4.7,0-8.7,1.6-12.1,4.7c-3.4,3.2-5.4,7.3-6,12.4h21.2v3.8h-21.2
			c0.5,5.2,2.5,9.4,5.8,12.7c3.4,3.2,7.5,4.9,12.2,4.9c2.3,0,4.4-0.3,6.3-1C279.1,219.5,281,218.4,282.9,216.9z"/>
		<path class="st0" d="M292.5,224h-4.1v-44.4h0.4c5.2,0,9.4,1.5,12.8,4.6c3.4,3,5,6.8,5,11.4c0,2.9-0.7,5.5-2,7.9
			c-1.4,2.3-3.6,4.7-6.6,7c0.7,2,1.8,3.9,3.4,5.6c1.5,1.7,3.4,3.1,5.5,4.2v4.6c-2.1-0.9-4-1.9-5.5-3s-2.9-2.4-4-3.9
			c-1.2-1.6-2.3-3.4-3.1-5.5c-0.9-2.1-1.3-3.5-1.3-4.4c0-0.2,0.4-0.5,1.3-0.9s1.7-0.8,2.4-1.4c1.9-1.4,3.3-3,4.3-4.7
			c1-1.7,1.5-3.5,1.5-5.5c0-2.8-0.9-5.3-2.8-7.5c-1.8-2.1-4.2-3.4-7.1-3.8L292.5,224L292.5,224z"/>
		<path class="st0" d="M316.6,224c2-1.3,3.5-3,4.5-4.9s1.6-4,1.6-6.2c0-1.5-0.3-3-1-4.3c-0.7-1.4-1.8-2.8-3.4-4.4l-0.5-0.5
			c-4.1-4.1-6.2-7.9-6.2-11.3c0-3.7,1.3-6.9,3.8-9.6s5.7-4,9.4-4c1.2,0,2.4,0.2,3.7,0.5c1.2,0.3,2.5,0.8,3.8,1.4v4.2
			c-1.1-0.8-2.2-1.4-3.4-1.8c-1.2-0.4-2.4-0.6-3.6-0.6c-2.7,0-4.8,0.9-6.6,2.7c-1.7,1.8-2.6,4.1-2.6,6.8c0,1.6,0.4,3,1.1,4.4
			c0.8,1.4,2.1,3,3.9,4.7c2,1.9,3.5,3.8,4.4,5.6c0.9,1.9,1.4,3.9,1.4,6.1c0,2-0.3,3.9-1,5.8s-1.7,3.7-3.1,5.3h-6.2L316.6,224
			L316.6,224z"/>
	</g>
	<g>
		<path class="st0" d="M8.7,246.7c-1.1-1.7-1.9-3.6-2.4-5.8c-0.6-2.1-0.8-4.4-0.8-6.8c0-0.3,0-0.5,0-0.6s0-0.3,0-0.4h1.2
			c0,0.4,0,0.6,0,0.8c0,0.2,0,0.3,0,0.5c0,1.7,0.2,3.3,0.5,4.9s0.8,3.2,1.5,4.9l2.7-7.1l2.4,7.1c0.8-1.8,1.4-3.6,1.7-5.3
			s0.6-3.4,0.6-5.1c0-0.1,0-0.2,0-0.3c0-0.1,0-0.3,0-0.3h1.2v0.4c0,2.4-0.3,4.8-0.9,7s-1.5,4.3-2.7,6.1l-2.3-6.7L8.7,246.7z"/>
		<path class="st0" d="M25.5,239.3v-6.1h1.2v13.5h-1.2v-6.3h-5.7v6.3h-1.2v-13.5h1.2v6.1H25.5z"/>
		<path class="st0" d="M38.1,244.6v1.4c-0.6,0.3-1.1,0.6-1.7,0.7c-0.5,0.2-1.1,0.2-1.7,0.2c-1.9,0-3.5-0.7-4.8-2s-1.9-3-1.9-5
			s0.6-3.6,1.9-5c1.3-1.3,2.9-2,4.8-2c0.6,0,1.2,0.1,1.7,0.2s1.1,0.4,1.7,0.7v1.4c-0.6-0.5-1.1-0.8-1.6-1s-1.2-0.3-1.8-0.3
			c-1.4,0-2.6,0.5-3.5,1.4c-1,1-1.6,2.2-1.8,3.8h6.2v1.2h-6.2c0.2,1.6,0.7,2.9,1.7,3.9s2.2,1.5,3.6,1.5c0.7,0,1.3-0.1,1.8-0.3
			C37,245.3,37.6,245,38.1,244.6z"/>
		<path class="st0" d="M41,246.7h-1.2v-13.5h0.1c1.5,0,2.8,0.5,3.8,1.4s1.5,2.1,1.5,3.5c0,0.9-0.2,1.7-0.6,2.4c-0.4,0.7-1,1.4-2,2.1
			c0.2,0.6,0.5,1.2,1,1.7s1,0.9,1.6,1.3v1.4c-0.6-0.3-1.2-0.6-1.6-0.9c-0.5-0.3-0.9-0.7-1.2-1.2c-0.4-0.5-0.7-1-0.9-1.7
			s-0.4-1.1-0.4-1.3c0-0.1,0.1-0.2,0.4-0.3c0.3-0.1,0.5-0.3,0.7-0.4c0.6-0.4,1-0.9,1.3-1.4s0.4-1.1,0.4-1.7c0-0.9-0.3-1.6-0.8-2.3
			c-0.5-0.7-1.2-1-2.1-1.2C41,234.6,41,246.7,41,246.7z"/>
		<path class="st0" d="M56.4,244.6v1.4c-0.6,0.3-1.1,0.6-1.7,0.7c-0.5,0.2-1.1,0.2-1.7,0.2c-1.9,0-3.5-0.7-4.8-2s-1.9-3-1.9-5
			s0.6-3.6,1.9-5c1.3-1.3,2.9-2,4.8-2c0.6,0,1.2,0.1,1.7,0.2s1.1,0.4,1.7,0.7v1.4c-0.6-0.5-1.1-0.8-1.6-1S53.6,234,53,234
			c-1.4,0-2.6,0.5-3.5,1.4c-1,1-1.6,2.2-1.8,3.8h6.2v1.2h-6.2c0.2,1.6,0.7,2.9,1.7,3.9s2.2,1.5,3.6,1.5c0.7,0,1.3-0.1,1.8-0.3
			C55.3,245.3,55.8,245,56.4,244.6z"/>
		<path class="st0" d="M74.6,244.6v1.4c-0.5,0.3-1,0.6-1.6,0.7c-0.6,0.2-1.2,0.2-1.9,0.2c-0.9,0-1.7-0.2-2.5-0.5s-1.5-0.8-2.1-1.5
			s-1.1-1.4-1.4-2.3c-0.3-0.8-0.5-1.7-0.5-2.7c0-2,0.6-3.6,1.9-5c1.3-1.3,2.9-2,4.8-2c0.6,0,1.2,0.1,1.7,0.2s1.1,0.4,1.7,0.7v1.4
			c-0.6-0.5-1.1-0.8-1.6-1s-1.2-0.3-1.8-0.3c-1.5,0-2.8,0.6-3.8,1.7s-1.5,2.5-1.5,4.2s0.5,3,1.5,4.2s2.3,1.7,3.8,1.7
			c0.7,0,1.3-0.1,1.9-0.3C73.5,245.3,74.1,245,74.6,244.6z"/>
		<path class="st0" d="M75.7,240c0-0.8,0.1-1.6,0.4-2.4c0.2-0.8,0.6-1.4,1.1-2.1c0.6-0.8,1.4-1.4,2.3-1.9c0.9-0.4,1.8-0.7,2.9-0.7
			c0.8,0,1.5,0.1,2.3,0.4c0.7,0.3,1.4,0.7,2,1.2c0.8,0.7,1.4,1.5,1.8,2.4c0.4,0.9,0.6,1.9,0.6,3c0,0.8-0.1,1.6-0.4,2.4
			c-0.3,0.8-0.6,1.4-1.1,2.1c-0.6,0.8-1.4,1.4-2.3,1.9c-0.9,0.4-1.8,0.6-2.8,0.6c-0.9,0-1.8-0.2-2.6-0.5s-1.5-0.9-2.2-1.5
			c-0.6-0.7-1.1-1.4-1.4-2.2C75.9,241.8,75.7,240.9,75.7,240z M76.9,240c0,1.7,0.5,3.1,1.6,4.2s2.3,1.7,3.9,1.7
			c1.5,0,2.8-0.6,3.8-1.7s1.6-2.5,1.6-4.2s-0.5-3-1.6-4.2s-2.3-1.7-3.9-1.7c-1.5,0-2.8,0.6-3.8,1.7S76.9,238.3,76.9,240z"/>
		<path class="st0" d="M90.4,233.2h0.2c2.2,0,3.9,0.6,5.2,1.8c1.3,1.2,1.9,2.9,1.9,4.9s-0.6,3.7-1.9,4.9c-1.3,1.2-3,1.9-5.1,1.9
			h-0.3L90.4,233.2L90.4,233.2z M91.5,234.4v11c1.5-0.1,2.7-0.6,3.6-1.6c0.9-1,1.4-2.3,1.4-3.9S96,237,95.1,236
			C94.2,235,93,234.5,91.5,234.4z"/>
		<path class="st0" d="M99.2,246.7v-13.5h1.2v13.5H99.2z"/>
		<path class="st0" d="M102.5,246.7v-13.8c1.5,0.8,2.8,1.8,3.9,3c1,1.2,1.8,2.6,2.2,4.1l-0.2-6.9h1.2v13.5h-1.2c0-0.1,0-0.2,0-0.4
			c0-0.1,0-0.3,0-0.6c0-2.3-0.4-4.4-1.2-6.2s-2-3.3-3.6-4.5v11.6h-1.1L102.5,246.7L102.5,246.7z"/>
		<path class="st0" d="M120.7,239.9v6.4c-0.5,0.2-0.9,0.4-1.4,0.5s-0.9,0.2-1.4,0.2c-1.9,0-3.5-0.7-4.7-2c-1.3-1.3-1.9-3-1.9-5
			s0.6-3.6,1.9-5c1.3-1.3,2.9-2,4.8-2c0.6,0,1.2,0.1,1.7,0.2s1.1,0.4,1.7,0.7v1.4c-0.6-0.5-1.1-0.8-1.6-1s-1.2-0.3-1.8-0.3
			c-1.5,0-2.8,0.6-3.8,1.7s-1.5,2.5-1.5,4.2s0.5,3.1,1.6,4.2c1,1.1,2.4,1.7,4,1.7c0.2,0,0.4,0,0.6-0.1c0.2,0,0.5-0.1,0.9-0.2v-5.7
			L120.7,239.9L120.7,239.9z"/>
		<path class="st0" d="M130,246.7v-13.5h0.1c1.6,0,2.8,0.3,3.7,1s1.3,1.6,1.3,2.8c0,0.5-0.1,0.9-0.2,1.3c-0.1,0.4-0.4,0.7-0.7,1.1
			c0.5,0.3,0.9,0.7,1.1,1.2c0.2,0.5,0.4,1.1,0.4,1.8c0,1.4-0.5,2.5-1.4,3.2s-2.2,1.1-3.9,1.1H130z M131.2,245.5c1,0,1.8-0.3,2.3-0.9
			c0.6-0.5,0.8-1.3,0.8-2.2c0-0.7-0.2-1.3-0.5-1.8c-0.4-0.5-0.9-0.9-1.6-1.1c0.5-0.2,1-0.5,1.2-1s0.4-1,0.4-1.6
			c0-0.8-0.2-1.4-0.7-1.8s-1.1-0.7-2-0.7v11.1H131.2z"/>
		<path class="st0" d="M146.7,244.6v1.4c-0.6,0.3-1.1,0.6-1.7,0.7c-0.5,0.2-1.1,0.2-1.7,0.2c-1.9,0-3.5-0.7-4.8-2s-1.9-3-1.9-5
			s0.6-3.6,1.9-5c1.3-1.3,2.9-2,4.8-2c0.6,0,1.2,0.1,1.7,0.2s1.1,0.4,1.7,0.7v1.4c-0.6-0.5-1.1-0.8-1.6-1s-1.2-0.3-1.8-0.3
			c-1.4,0-2.6,0.5-3.5,1.4c-1,1-1.6,2.2-1.8,3.8h6.2v1.2H138c0.2,1.6,0.7,2.9,1.7,3.9s2.2,1.5,3.6,1.5c0.7,0,1.3-0.1,1.8-0.3
			C145.6,245.3,146.2,245,146.7,244.6z"/>
		<path class="st0" d="M157.2,239.9v6.4c-0.5,0.2-0.9,0.4-1.4,0.5s-0.9,0.2-1.4,0.2c-1.9,0-3.5-0.7-4.7-2c-1.3-1.3-1.9-3-1.9-5
			s0.6-3.6,1.9-5c1.3-1.3,2.9-2,4.8-2c0.6,0,1.2,0.1,1.7,0.2s1.1,0.4,1.7,0.7v1.4c-0.6-0.5-1.1-0.8-1.6-1s-1.2-0.3-1.8-0.3
			c-1.5,0-2.8,0.6-3.8,1.7s-1.5,2.5-1.5,4.2s0.5,3.1,1.6,4.2c1,1.1,2.4,1.7,4,1.7c0.2,0,0.4,0,0.6-0.1c0.2,0,0.5-0.1,0.9-0.2v-5.7
			L157.2,239.9L157.2,239.9z"/>
		<path class="st0" d="M159.5,246.7v-13.5h1.2v13.5H159.5z"/>
		<path class="st0" d="M162.8,246.7v-13.8c1.5,0.8,2.8,1.8,3.9,3c1,1.2,1.8,2.6,2.2,4.1l-0.1-6.8h1.2v13.5h-1.2c0-0.1,0-0.2,0-0.4
			c0-0.1,0-0.3,0-0.6c0-2.3-0.4-4.4-1.2-6.2c-0.8-1.8-2-3.3-3.6-4.5v11.6h-1.2V246.7z"/>
		<path class="st0" d="M173.2,246.7c0.6-0.4,1-0.9,1.3-1.5c0.3-0.6,0.5-1.2,0.5-1.9c0-0.5-0.1-0.9-0.3-1.3c-0.2-0.4-0.5-0.9-1-1.3
			l-0.2-0.2c-1.2-1.3-1.8-2.4-1.8-3.5s0.4-2.1,1.1-2.9s1.7-1.2,2.8-1.2c0.4,0,0.7,0,1.1,0.1c0.4,0.1,0.7,0.2,1.1,0.4v1.3
			c-0.3-0.2-0.6-0.4-1-0.6c-0.3-0.1-0.7-0.2-1.1-0.2c-0.8,0-1.4,0.3-1.9,0.8c-0.5,0.6-0.8,1.3-0.8,2.1c0,0.5,0.1,0.9,0.3,1.4
			c0.2,0.4,0.6,0.9,1.1,1.4c0.6,0.6,1,1.2,1.3,1.7c0.3,0.6,0.4,1.2,0.4,1.9c0,0.6-0.1,1.2-0.3,1.8c-0.2,0.6-0.5,1.1-0.9,1.6h-1.7
			L173.2,246.7L173.2,246.7z"/>
		<path class="st0" d="M185.3,246.7c0-0.1,0-0.2,0-0.4s0-0.3,0-0.6c0-2.8,0.3-5.2,1-7.2s1.8-3.9,3.3-5.5c1.5,1.7,2.6,3.5,3.3,5.5
			c0.7,2,1,4.4,1,7.1c0,0.3,0,0.5,0,0.7c0,0.1,0,0.3,0,0.4h-1.1v-0.5c0-1,0-1.8-0.1-2.5c0-0.7-0.1-1.4-0.2-1.9h-6
			c-0.1,0.7-0.1,1.4-0.2,2.2c0,0.8-0.1,1.7-0.1,2.7L185.3,246.7L185.3,246.7z M186.8,240.6h5.5c-0.2-1-0.5-2-1-3s-1-2-1.8-3
			c-0.7,0.9-1.3,1.9-1.7,2.9C187.4,238.5,187,239.5,186.8,240.6z"/>
		<path class="st0" d="M195.2,246.7v-13.5h1.2v12.4h3.6v1.2h-4.8L195.2,246.7L195.2,246.7z"/>
		<path class="st0" d="M201.1,246.7v-13.5h1.2v12.4h3.6v1.2h-4.8L201.1,246.7L201.1,246.7z"/>
		<path class="st0" d="M213.6,240c0-0.8,0.1-1.6,0.4-2.4c0.2-0.8,0.6-1.4,1.1-2.1c0.6-0.8,1.4-1.4,2.3-1.9c0.9-0.4,1.8-0.7,2.9-0.7
			c0.8,0,1.5,0.1,2.3,0.4c0.7,0.3,1.4,0.7,2,1.2c0.8,0.7,1.4,1.5,1.8,2.4s0.6,1.9,0.6,3c0,0.8-0.1,1.6-0.4,2.4s-0.6,1.4-1.1,2.1
			c-0.6,0.8-1.4,1.4-2.3,1.9c-0.9,0.4-1.8,0.6-2.8,0.6c-0.9,0-1.8-0.2-2.6-0.5s-1.5-0.9-2.2-1.5c-0.6-0.7-1.1-1.4-1.4-2.2
			S213.6,240.9,213.6,240z M214.8,240c0,1.7,0.5,3.1,1.6,4.2s2.3,1.7,3.9,1.7c1.5,0,2.8-0.6,3.8-1.7s1.6-2.5,1.6-4.2s-0.5-3-1.6-4.2
			c-1.1-1.1-2.3-1.7-3.9-1.7c-1.5,0-2.8,0.6-3.8,1.7S214.8,238.3,214.8,240z"/>
		<path class="st0" d="M234.7,246.7c-2.3-1.2-4.1-2.9-5.3-5.2c-1.2-2.3-1.8-5.1-1.8-8.3h1.2v0.1c0,2.6,0.4,4.9,1.2,6.7
			c0.8,1.9,2,3.5,3.6,4.8v-11.6h1.2v13.5H234.7z"/>
		<path class="st0" d="M246.2,244.6v1.4c-0.6,0.3-1.1,0.6-1.7,0.7c-0.5,0.2-1.1,0.2-1.7,0.2c-1.9,0-3.5-0.7-4.8-2s-1.9-3-1.9-5
			s0.6-3.6,1.9-5s2.9-2,4.8-2c0.6,0,1.2,0.1,1.7,0.2s1.1,0.4,1.7,0.7v1.4c-0.6-0.5-1.1-0.8-1.6-1s-1.2-0.3-1.8-0.3
			c-1.4,0-2.6,0.5-3.5,1.4c-1,1-1.6,2.2-1.8,3.8h6.2v1.2h-6.2c0.2,1.6,0.7,2.9,1.7,3.9s2.2,1.5,3.6,1.5c0.7,0,1.3-0.1,1.8-0.3
			C245.1,245.3,245.7,245,246.2,244.6z"/>
		<path class="st0" d="M249.1,246.7h-1.3v-13.5h0.1c1.5,0,2.8,0.5,3.8,1.4s1.5,2.1,1.5,3.5c0,0.9-0.2,1.7-0.6,2.4
			c-0.4,0.7-1,1.4-2,2.1c0.2,0.6,0.5,1.2,1,1.7s1,0.9,1.6,1.3v1.4c-0.6-0.3-1.2-0.6-1.6-0.9s-0.9-0.7-1.2-1.2
			c-0.4-0.5-0.7-1-0.9-1.7c-0.3-0.6-0.4-1.1-0.4-1.3c0-0.1,0.1-0.2,0.4-0.3s0.5-0.3,0.7-0.4c0.6-0.4,1-0.9,1.3-1.4s0.4-1.1,0.4-1.7
			c0-0.9-0.3-1.6-0.8-2.3c-0.5-0.7-1.2-1-2.1-1.2v12.1H249.1z"/>
		<path class="st0" d="M261.4,246.7c0-0.1,0-0.2,0-0.4s0-0.3,0-0.6c0-2.8,0.3-5.2,1-7.2s1.8-3.9,3.3-5.5c1.5,1.7,2.6,3.5,3.3,5.5
			c0.7,2,1,4.4,1,7.1c0,0.3,0,0.5,0,0.7c0,0.1,0,0.3,0,0.4h-1.1v-0.5c0-1,0-1.8-0.1-2.5c0-0.7-0.1-1.4-0.2-1.9h-6
			c-0.1,0.7-0.1,1.4-0.2,2.2c0,0.8-0.1,1.7-0.1,2.7L261.4,246.7L261.4,246.7z M262.9,240.6h5.5c-0.2-1-0.5-2-1-3s-1-2-1.8-3
			c-0.7,0.9-1.3,1.9-1.7,2.9C263.5,238.5,263.1,239.5,262.9,240.6z"/>
		<path class="st0" d="M280.2,239.9v6.4c-0.5,0.2-0.9,0.4-1.4,0.5s-0.9,0.2-1.4,0.2c-1.9,0-3.5-0.7-4.7-2s-1.9-3-1.9-5
			s0.6-3.6,1.9-5s2.9-2,4.8-2c0.6,0,1.2,0.1,1.7,0.2s1.1,0.4,1.7,0.7v1.4c-0.6-0.5-1.1-0.8-1.6-1s-1.2-0.3-1.8-0.3
			c-1.5,0-2.8,0.6-3.8,1.7s-1.5,2.5-1.5,4.2s0.5,3.1,1.6,4.2c1,1.1,2.4,1.7,4,1.7c0.2,0,0.4,0,0.6-0.1c0.2,0,0.5-0.1,0.9-0.2v-5.7
			L280.2,239.9L280.2,239.9z"/>
		<path class="st0" d="M281.7,246.7c0-0.1,0-0.2,0-0.4s0-0.3,0-0.6c0-2.8,0.3-5.2,1-7.2s1.8-3.9,3.3-5.5c1.5,1.7,2.6,3.5,3.3,5.5
			c0.7,2,1,4.4,1,7.1c0,0.3,0,0.5,0,0.7c0,0.1,0,0.3,0,0.4h-1.1v-0.5c0-1,0-1.8-0.1-2.5c0-0.7-0.1-1.4-0.2-1.9h-6
			c-0.1,0.7-0.1,1.4-0.2,2.2c0,0.8-0.1,1.7-0.1,2.7L281.7,246.7L281.7,246.7z M283.2,240.6h5.5c-0.2-1-0.5-2-1-3s-1-2-1.8-3
			c-0.7,0.9-1.3,1.9-1.7,2.9C283.8,238.5,283.5,239.5,283.2,240.6z"/>
		<path class="st0" d="M291.6,246.7v-13.5h1.2v13.5H291.6z"/>
		<path class="st0" d="M294.9,246.7v-13.8c1.5,0.8,2.8,1.8,3.9,3c1,1.2,1.8,2.6,2.2,4.1l-0.2-6.9h1.2v13.5h-1.2c0-0.1,0-0.2,0-0.4
			s0-0.3,0-0.6c0-2.3-0.4-4.4-1.2-6.2c-0.8-1.8-2-3.3-3.6-4.5v11.6h-1.1L294.9,246.7L294.9,246.7z"/>
		<path class="st0" d="M308.9,247.9c-1.7-0.9-3-2-3.8-3.4s-1.3-2.9-1.3-4.7c0-1.8,0.4-3.4,1.2-4.7c0.8-1.3,2.1-2.5,3.9-3.4v1.5
			c-1.3,0.7-2.2,1.6-2.9,2.7c-0.7,1.1-1,2.4-1,3.8c0,1.5,0.3,2.8,0.9,3.8s1.6,2,3,2.8L308.9,247.9L308.9,247.9z"/>
		<path class="st0" d="M316.6,247.9v-1.5c1.4-0.8,2.3-1.8,3-2.8c0.6-1.1,0.9-2.3,0.9-3.8c0-1.4-0.3-2.7-1-3.8s-1.6-2-2.9-2.7v-1.5
			c1.7,0.9,3,2.1,3.8,3.4s1.2,2.9,1.2,4.7c0,1.8-0.4,3.4-1.3,4.7S318.4,247,316.6,247.9z"/>
		<path class="st0" d="M323.7,246.7c-0.2-0.1-0.4-0.2-0.5-0.3c-0.1-0.1-0.2-0.3-0.2-0.5s0.1-0.4,0.2-0.6s0.3-0.2,0.6-0.2
			c0.2,0,0.4,0.1,0.6,0.2c0.2,0.2,0.2,0.3,0.2,0.6c0,0.1,0,0.2,0,0.2s0,0.1-0.1,0.2l-0.9,1.7h-0.7L323.7,246.7z M323,243.5
			c0-0.2,0.1-0.4,0.2-0.6c0.2-0.2,0.3-0.3,0.6-0.3s0.4,0.1,0.6,0.3c0.2,0.2,0.2,0.4,0.2,0.6s-0.1,0.4-0.2,0.6
			c-0.2,0.2-0.3,0.3-0.6,0.3c-0.2,0-0.4-0.1-0.6-0.2S323,243.7,323,243.5z"/>
	</g>
	<g>
		<path class="st0" d="M36.5,19.7c-5.6-5.3-13.2-7.9-22.8-7.9H13v57.6h1.2c2.7,0,5.2-0.2,7.6-0.7c1.4-0.3,2.8-0.6,4.1-1
			c0.3-0.1,0.6-0.2,0.9-0.3c0.5-0.2,0.9-0.3,1.4-0.5c3.2-1.3,6-3.1,8.5-5.5c0.7-0.7,1.4-1.4,2-2.1s1.1-1.4,1.6-2.1
			c0.5-0.8,1-1.5,1.4-2.3c0.2-0.3,0.3-0.6,0.4-0.9c0.7-1.3,1.2-2.8,1.7-4.3c0.1-0.4,0.2-0.7,0.3-1.1c0-0.1,0.1-0.3,0.1-0.4
			c0.1-0.3,0.1-0.6,0.2-0.9c0-0.2,0.1-0.4,0.1-0.6c0-0.3,0.1-0.5,0.1-0.8s0.1-0.6,0.1-0.9l0,0c0.1-0.5,0.1-0.9,0.2-1.4
			c0-0.5,0.1-1,0.1-1.4c0-0.3,0-0.6,0-0.8c0-0.2,0-0.3,0-0.5c0,0,0,0,0-0.1s0-0.3,0-0.4C45,32,42.1,25,36.5,19.7z M33.9,57.4
			L33.9,57.4c-0.3,0.4-0.6,0.6-0.8,0.8c-2.2,2.2-4.7,3.7-7.7,4.7l0,0c-2.2,0.8-4.7,1.2-7.3,1.2V17.2c6.5,0.1,11.7,2.3,15.7,6.7
			c4,4.4,6,10,6,16.8c0,1.9-0.2,3.8-0.5,5.5c-0.7,4-2.3,7.5-4.7,10.4C34.4,56.9,34.1,57.1,33.9,57.4z"/>
		<g>
			<path class="st0" d="M148.9,221.7v-18.5c5.8-2.8,11.4-6.4,16.6-10.9v21L148.9,221.7z"/>
			<path class="st0" d="M110.7,228.3c-13.7,0-26.8-2.6-39.3-7.8s-23.6-12.8-33.2-22.7c-9.8-9.9-17.3-21.3-22.4-34
				c-5.1-12.8-7.6-26.4-7.6-41.1c0-20.2,4.5-38.2,13.6-54c1.4-0.3,2.8-0.6,4.1-1c0.3-0.1,0.6-0.2,0.9-0.3c0.5-0.2,0.9-0.3,1.4-0.5
				c3.2-1.3,6-3.1,8.5-5.5c0.7-0.7,1.4-1.4,2-2.1s1.1-1.4,1.6-2.1c0.5-0.8,1-1.5,1.4-2.3c0.2-0.3,0.3-0.6,0.4-0.9
				c0.7-1.3,1.2-2.8,1.7-4.3c0.1-0.4,0.2-0.7,0.3-1.1c0-0.1,0.1-0.3,0.1-0.4c0.1-0.3,0.1-0.6,0.2-0.9c0-0.2,0.1-0.4,0.1-0.6
				c0-0.3,0.1-0.5,0.1-0.8s0.1-0.6,0.1-0.9l0,0c0.1-0.5,0.1-0.9,0.2-1.4c0-0.5,0.1-1,0.1-1.4c0-0.3,0-0.6,0-0.8c0-0.2,0-0.3,0-0.5
				C63.7,25,86.4,17,113,17c2.2,0,4.4,0.1,6.6,0.2v17c-2.8-0.2-5.8-0.4-8.8-0.4c-23.5,0-43.3,8.5-59.4,25.6
				c-16.2,17.1-24.2,38.1-24.2,63.1s8.1,46,24.2,63.1c16.2,17.1,36,25.6,59.4,25.6l8.8-0.3v16.9L110.7,228.3z"/>
			<path class="st0" d="M165.5,31.6v21.5c-5.8-4.5-11.5-8.1-17.1-10.9c0.2,0.1,0.3,0.2,0.5,0.2V23.7
				C154.3,25.8,159.8,28.4,165.5,31.6z"/>
		</g>
	</g>
</g>
</svg>
